<?xml version="1.0" standalone="no"?>
<!DOCTYPE svg PUBLIC "-//W3C//DTD SVG 20010904//EN"
 "http://www.w3.org/TR/2001/REC-SVG-20010904/DTD/svg10.dtd">
<svg version="1.0" xmlns="http://www.w3.org/2000/svg"
 width="500.000000pt" height="500.000000pt" viewBox="0 0 500.000000 500.000000"
 preserveAspectRatio="xMidYMid meet">
<metadata>
Created by potrace 1.16, written by Peter Selinger 2001-2019
</metadata>
<g transform="translate(0.000000,500.000000) scale(0.100000,-0.100000)"
fill="#000000" stroke="none">
<path d="M3372 3463 c18 -38 68 -129 111 -203 44 -74 90 -153 102 -175 13 -22
55 -94 94 -159 39 -66 71 -124 71 -130 0 -6 4 -5 8 2 7 10 76 12 320 10 172
-2 312 1 312 5 0 4 -31 45 -70 90 l-70 82 0 176 c0 201 1 199 -79 207 -79 7
-90 -4 -93 -100 l-3 -81 -89 104 c-134 155 -121 146 -216 163 -47 8 -159 29
-248 46 -90 16 -168 30 -172 30 -5 0 5 -30 22 -67z"/>
<path d="M2532 3438 c-7 -7 -12 -43 -12 -92 l1 -81 74 -80 75 -80 0 157 c0 86
-3 163 -6 172 -8 20 -113 23 -132 4z"/>
<path d="M2300 3433 c-14 -2 -151 -24 -305 -49 -154 -25 -287 -48 -297 -52 -9
-4 -92 -79 -184 -167 -264 -253 -395 -377 -456 -434 -32 -30 -58 -57 -58 -60
0 -3 183 -5 407 -3 371 3 409 4 420 20 7 9 33 46 58 82 60 83 270 383 335 477
28 40 50 76 50 81 0 5 13 27 28 48 38 53 45 64 35 63 -4 -1 -19 -4 -33 -6z"/>
<path d="M2160 2790 l0 -130 130 0 130 0 0 130 0 130 -130 0 -130 0 0 -130z"/>
<path d="M2794 2702 c-253 -325 -358 -452 -372 -452 -10 0 -26 6 -37 13 -11 8
-29 16 -40 20 -11 3 -51 17 -90 32 -292 111 -583 97 -860 -42 -80 -40 -129
-72 -348 -224 -56 -40 -152 -135 -107 -107 137 84 174 105 230 131 290 133
573 141 927 26 142 -46 305 -112 548 -224 441 -202 737 -267 1015 -221 201 33
429 150 614 316 51 45 96 93 92 97 -2 2 -39 -14 -82 -36 -136 -67 -365 -151
-411 -151 -9 0 -13 18 -13 60 l0 60 -305 0 -305 0 0 -51 0 -52 -32 6 c-117 19
-666 265 -650 292 3 5 74 100 157 211 83 110 155 206 159 212 8 14 -44 112
-59 111 -5 0 -19 -12 -31 -27z"/>
<path d="M1405 2084 c-219 -31 -404 -127 -627 -326 -81 -73 -224 -226 -216
-233 2 -2 49 30 103 71 118 88 302 183 430 220 72 21 119 27 235 31 263 10
435 -38 870 -240 431 -199 562 -250 735 -282 123 -23 370 -16 465 13 145 44
266 106 391 199 70 53 222 194 215 200 -2 2 -55 -21 -117 -52 -225 -113 -439
-168 -659 -167 -284 0 -461 57 -968 311 -328 165 -391 192 -531 227 -92 24
-258 38 -326 28z"/>
</g>
</svg>
