<?xml version="1.0"?>
<svg xmlns="http://www.w3.org/2000/svg" id="Outline" viewBox="0 0 512 512" width="24" fill="#9a9c9a" height="24"><path d="M496,64a8,8,0,0,0,0-16,40.045,40.045,0,0,0-40,40V296H424V136a8,8,0,0,0-2.343-5.657l-80-80A8,8,0,0,0,336,48H128A40.045,40.045,0,0,0,88,88V200H56V88A40.045,40.045,0,0,0,16,48a8,8,0,0,0,0,16A24.027,24.027,0,0,1,40,88V200H24a8,8,0,0,0-8,8v48a8,8,0,0,0,8,8H40V424a24.028,24.028,0,0,1-24,24,8,8,0,0,0,0,16,40.045,40.045,0,0,0,40-40V264H88V424a40.045,40.045,0,0,0,40,40H384a40.045,40.045,0,0,0,40-40V360h32v64a40.045,40.045,0,0,0,40,40,8,8,0,0,0,0-16,24.028,24.028,0,0,1-24-24V360h16a8,8,0,0,0,8-8V304a8,8,0,0,0-8-8H472V88A24.027,24.027,0,0,1,496,64ZM344,75.313,396.686,128H368a24.027,24.027,0,0,1-24-24ZM96,248H32V216H96a8,8,0,0,0,8-8v-8l42.667,32L104,264v-8A8,8,0,0,0,96,248ZM408,424a24.027,24.027,0,0,1-24,24H128a24.027,24.027,0,0,1-24-24V284l60.8-45.6a8,8,0,0,0,0-12.8L104,180V88a24.027,24.027,0,0,1,24-24H328v40a40.045,40.045,0,0,0,40,40h40V276l-60.8,45.6a8,8,0,0,0,0,12.8L408,380Zm72-112v32H416a8,8,0,0,0-8,8v8l-42.667-32L408,296v8a8,8,0,0,0,8,8Z"/><path d="M216,184a8,8,0,0,0,8,8H368a8,8,0,0,0,0-16H224A8,8,0,0,0,216,184Z"/><path d="M280,232a8,8,0,0,0-8-8H208a8,8,0,0,0,0,16h64A8,8,0,0,0,280,232Z"/><path d="M352,272H272a8,8,0,0,0,0,16h80a8,8,0,0,0,0-16Z"/><path d="M304,320H144a8,8,0,0,0,0,16H304a8,8,0,0,0,0-16Z"/><path d="M200,184a8,8,0,0,0-8-8H160a8,8,0,0,0,0,16h32A8,8,0,0,0,200,184Z"/><path d="M368,224H304a8,8,0,0,0,0,16h64a8,8,0,0,0,0-16Z"/><path d="M160,288h80a8,8,0,0,0,0-16H160a8,8,0,0,0,0,16Z"/><path d="M192,368H144a8,8,0,0,0,0,16h48a8,8,0,0,0,0-16Z"/><path d="M248,136a8,8,0,0,0-8-8H144a8,8,0,0,0,0,16h96A8,8,0,0,0,248,136Z"/><path d="M304,368H224a8,8,0,0,0,0,16h80a8,8,0,0,0,0-16Z"/><path d="M328,376a8,8,0,0,0,8,8h16a8,8,0,0,0,0-16H336A8,8,0,0,0,328,376Z"/></svg>
